<?xml version="1.0" standalone="no"?>
<!DOCTYPE svg PUBLIC "-//W3C//DTD SVG 20010904//EN"
 "http://www.w3.org/TR/2001/REC-SVG-20010904/DTD/svg10.dtd">
<svg version="1.0" xmlns="http://www.w3.org/2000/svg"
 width="1640.000000pt" height="812.000000pt" viewBox="0 0 1640.000000 812.000000"
 preserveAspectRatio="xMidYMid meet">

<g transform="translate(0.000000,812.000000) scale(0.100000,-0.100000)"
 stroke="none">
<path d="M14933 4910 c-18 -11 -34 -21 -35 -22 -1 -2 -4 -88 -7 -193 l-6 -190
-188 -5 -189 -5 -24 -28 c-22 -26 -24 -37 -24 -127 0 -107 12 -148 44 -155 12
-3 68 -6 126 -8 104 -2 105 -2 108 -27 6 -40 19 -46 41 -19 25 32 176 135 268
183 39 21 89 53 111 72 44 38 72 44 72 16 0 -18 -21 -39 -204 -206 -42 -38
-97 -99 -122 -137 -45 -65 -46 -70 -31 -87 13 -14 17 -38 17 -104 0 -78 2 -86
26 -109 24 -23 33 -24 141 -24 156 0 155 -2 153 189 -2 120 1 149 18 196 l20
55 183 3 c114 1 187 7 196 13 10 9 13 46 13 144 0 111 -3 135 -16 146 -11 9
-56 16 -133 19 -131 6 -125 -1 -93 97 16 51 17 65 7 79 -11 16 -19 11 -86 -45
-40 -34 -80 -60 -89 -59 -12 3 -16 30 -20 160 -3 86 -7 158 -10 161 -46 42
-210 52 -267 17z"/>
<path d="M10674 4866 c-57 -26 -96 -63 -123 -116 -10 -19 -62 -145 -114 -280
-53 -135 -103 -262 -112 -284 -28 -66 -28 -66 182 -66 103 0 193 4 198 8 6 4
23 50 39 102 47 162 47 162 92 19 l40 -124 204 -3 c112 -1 207 1 212 6 5 5 -1
31 -13 58 -11 27 -45 112 -74 189 -29 77 -70 185 -91 240 -79 210 -155 275
-318 275 -54 0 -83 -6 -122 -24z"/>
<path d="M8855 4854 c-83 -18 -108 -29 -139 -65 -68 -74 -66 -45 -66 -1025 0
-789 2 -884 16 -898 13 -14 47 -16 213 -16 154 0 201 3 210 13 8 10 12 234 13
778 l3 764 504 3 c352 1 508 6 518 13 10 9 13 56 13 208 0 108 -5 203 -10 211
-8 13 -90 15 -632 16 -343 1 -632 0 -643 -2z"/>
<path d="M14064 4822 c-6 -4 -18 -27 -27 -52 -8 -25 -36 -99 -60 -165 -89
-238 -209 -562 -240 -650 l-32 -90 5 -493 c4 -423 7 -494 20 -502 23 -15 393
-13 408 2 16 16 17 1782 1 1857 -10 46 -41 101 -57 101 -4 0 -12 -4 -18 -8z"/>
<path d="M7206 4803 c-88 -15 -182 -50 -266 -97 -74 -41 -210 -173 -267 -259
-154 -232 -209 -618 -138 -968 36 -175 127 -348 248 -473 121 -124 265 -200
427 -226 108 -17 456 -8 535 13 300 84 523 339 602 687 34 153 27 544 -13 683
-22 77 -64 186 -74 192 -5 3 -27 -34 -50 -81 -46 -99 -122 -229 -187 -321
l-44 -62 -4 -138 c-2 -76 -9 -154 -14 -173 -5 -19 -16 -61 -25 -93 -35 -128
-122 -251 -227 -318 -134 -85 -352 -93 -505 -18 -134 67 -254 244 -279 412 -7
43 -9 47 -36 47 -46 0 -128 -21 -183 -46 -35 -16 -54 -20 -61 -13 -13 13 44
65 168 153 l89 64 5 106 c4 79 2 106 -7 106 -25 0 -130 -64 -185 -112 -40 -36
-59 -48 -67 -40 -10 10 0 28 146 262 22 36 76 109 119 162 125 156 250 229
412 243 99 8 180 -4 316 -49 206 -68 351 -70 516 -9 l42 15 -16 31 c-25 49
-156 172 -230 216 -91 54 -190 90 -293 107 -108 17 -351 16 -454 -3z"/>
<path d="M3390 4789 c-75 -11 -207 -58 -275 -100 -74 -44 -181 -143 -241 -222
-58 -76 -125 -217 -153 -318 -75 -280 -41 -639 82 -869 43 -79 64 -107 132
-179 152 -161 353 -243 595 -245 150 0 532 32 592 51 121 37 169 107 176 256
l5 99 -409 -3 c-385 -2 -413 -1 -470 18 -206 67 -314 258 -314 552 0 150 17
239 64 338 69 144 182 223 332 231 147 8 250 -41 337 -160 40 -55 54 -68 76
-67 14 0 100 31 191 67 195 79 193 76 128 190 -51 91 -168 212 -251 261 -158
93 -388 131 -597 100z"/>
<path d="M1400 4770 c-39 -13 -67 -32 -95 -62 -42 -46 -42 -46 -210 -478 -42
-107 -105 -267 -140 -355 -80 -203 -163 -417 -260 -665 -42 -107 -85 -216 -96
-243 -21 -50 -21 -106 0 -131 11 -13 40 -16 166 -16 83 0 167 5 186 11 54 17
111 89 179 227 62 126 122 228 145 247 6 5 29 35 51 65 97 137 335 397 353
385 5 -2 34 -66 65 -142 31 -76 114 -271 184 -433 l127 -295 180 0 c156 0 180
2 183 16 2 12 -200 543 -390 1022 -17 43 -39 82 -50 88 -15 8 -17 14 -8 24 10
13 7 21 -166 464 -60 153 -76 181 -123 224 -71 64 -179 82 -281 47z m104 -492
c5 -16 66 -198 109 -326 l32 -93 -25 -20 c-14 -11 -41 -29 -60 -40 -56 -32
-163 -100 -230 -147 -34 -24 -64 -41 -68 -37 -4 3 4 34 17 68 13 34 65 185
115 334 50 150 95 273 99 273 4 0 9 -6 11 -12z m395 -334 c-8 -10 -15 -12 -23
-4 -7 7 -4 14 10 24 22 17 32 3 13 -20z m-62 -61 c-21 -22 -32 -11 -15 16 8
13 16 17 22 11 7 -7 4 -16 -7 -27z"/>
<path d="M12229 4728 c-74 -101 -69 -30 -69 -993 0 -813 1 -865 18 -873 9 -5
99 -7 200 -4 148 4 186 7 199 20 14 14 15 75 11 551 l-5 536 -45 120 c-25 66
-84 226 -132 355 -113 309 -119 323 -133 327 -7 3 -26 -15 -44 -39z"/>
<path d="M4845 4745 c-49 -17 -99 -70 -116 -122 -17 -49 -26 -1674 -10 -1717
l11 -26 202 2 203 3 5 330 5 330 158 0 159 0 210 -320 c115 -176 215 -326 220
-333 8 -9 64 -12 237 -10 219 3 226 4 225 23 0 11 -97 169 -215 350 -119 182
-219 335 -223 342 -4 8 15 23 57 44 190 92 297 280 297 523 0 279 -165 491
-445 572 -52 15 -119 18 -500 21 -366 2 -447 0 -480 -12z m860 -396 c54 -15
104 -54 121 -95 18 -43 18 -155 0 -197 -17 -43 -76 -93 -123 -106 -22 -6 -148
-11 -300 -11 l-263 0 0 210 0 210 263 0 c158 0 278 -4 302 -11z"/>
<path d="M14704 3932 c-11 -9 -35 -28 -54 -42 -68 -51 -90 -77 -90 -109 0 -63
60 -26 111 69 14 25 33 57 43 73 21 31 19 33 -10 9z"/>
<path d="M3771 3750 c-39 -9 -77 -36 -105 -73 -14 -19 -19 -42 -19 -87 0 -52
4 -65 30 -98 53 -66 57 -67 358 -67 254 0 272 1 305 21 55 32 80 77 80 144 0
67 -25 112 -80 144 -33 20 -53 21 -285 23 -137 1 -265 -2 -284 -7z"/>
<path d="M10092 3588 c-20 -51 -69 -177 -147 -378 -20 -52 -57 -146 -82 -208
-24 -63 -42 -120 -39 -128 5 -12 36 -14 183 -12 l177 3 37 85 c20 47 54 126
74 175 21 50 55 131 76 180 109 259 129 307 129 320 0 13 -31 15 -193 15
l-193 0 -22 -52z"/>
<path d="M11070 3635 c0 -3 55 -135 121 -293 67 -158 137 -325 156 -372 19
-47 40 -91 45 -98 8 -9 56 -12 197 -10 163 3 186 5 189 19 2 10 -17 68 -41
130 -25 63 -81 209 -126 324 -45 116 -90 230 -100 255 l-17 45 -212 3 c-117 1
-212 0 -212 -3z"/>
</g>
</svg>
