<?xml version="1.0" encoding="UTF-8" standalone="no"?>
<!-- Created with Inkscape (http://www.inkscape.org/) -->
<svg xmlns:inkscape="http://www.inkscape.org/namespaces/inkscape" xmlns:rdf="http://www.w3.org/1999/02/22-rdf-syntax-ns#" xmlns="http://www.w3.org/2000/svg" xmlns:xlink="http://www.w3.org/1999/xlink" xmlns:ns1="http://sozi.baierouge.fr" xmlns:cc="http://creativecommons.org/ns#" xmlns:sodipodi="http://sodipodi.sourceforge.net/DTD/sodipodi-0.dtd" xmlns:dc="http://purl.org/dc/elements/1.1/" id="svg2" xml:space="preserve" viewBox="0 0 588.96 115.91" version="1.1" inkscape:version="0.91 r13725">
  <defs id="defs6">
    <linearGradient id="linearGradient24" y2="-147.66" gradientUnits="userSpaceOnUse" x2="92.903" gradientTransform="matrix(-.01664 -1.5999 -1.6003 -.024 -.014292 92.72)" y1="-147.66" x1="-15.078">
      <stop id="stop26" style="stop-color:#4ac48f" offset="0"/>
      <stop id="stop28" style="stop-color:#217387" offset="1"/>
    </linearGradient>
    <linearGradient id="linearGradient42" y2="-144.95" gradientUnits="userSpaceOnUse" x2="79.747" gradientTransform="matrix(-.01704 -1.5999 -1.6003 -.02448 -.015101 92.72)" y1="-144.95" x1="13.993">
      <stop id="stop44" style="stop-color:#4ac48f" offset="0"/>
      <stop id="stop46" style="stop-color:#217387" offset="1"/>
    </linearGradient>
  </defs>
  <g id="g10" transform="matrix(1.25 0 0 -1.25 0 115.91)">
    <g id="g12">
      <g id="g14">
        <g id="g16">
          <g id="g22">
            <path id="path30" style="fill-rule:evenodd;fill:url(#linearGradient24)" d="m294.46 2.322c-27.68-1.551-47.94-2.321-60.8-2.321-24.371 0-42.746 0.266-55.117 0.797-19.039 0.801-42.055 2.641-69.039 5.524-41.336 4.375-65.442 7.117-72.32 8.238-28.911 4.586-40.961 10.027-36.161 16.32 26.133 18.559 53.118 33.227 80.957 44 30.188 11.625 58.86 17.574 86 17.84 12.11 0.106 28.618-1.922 49.524-6.082 13.652-2.664 36.023-7.785 67.117-15.359 75.359-18.344 135.46-31.012 180.32-38 19.79-8.907-7.62-17.039-82.23-24.399-26.46-2.613-55.87-4.801-88.25-6.558z" inkscape:connector-curvature="0"/>
          </g>
        </g>
      </g>
      <g id="g32">
        <g id="g34">
          <g id="g40">
            <path id="path48" style="fill-rule:evenodd;fill:url(#linearGradient42)" d="m366.94 5.919c-49.81-3.734-97.25-5.121-142.32-4.16-25.44 0.32-43.84 0.586-55.19 0.801-19.26 0.375-37.45 1.309-54.56 2.801-29.71 2.664-50.112 4.855-61.206 6.558-21.707 3.36-30.398 7.176-26.078 11.442 23.574 16.746 48.453 29.304 74.644 37.679 23.25 7.414 46.957 11.36 71.117 11.84 12.215 0.266 26.535-1.039 42.961-3.922 11.308-1.972 28.828-5.785 52.558-11.437 62.668-14.774 115.74-25.547 159.2-32.32 20.532-8.266 0.161-14.696-61.121-19.282z" inkscape:connector-curvature="0"/>
          </g>
        </g>
      </g>
    </g>
  </g>
<metadata><rdf:RDF><cc:Work><dc:format>image/svg+xml</dc:format><dc:type rdf:resource="http://purl.org/dc/dcmitype/StillImage"/><cc:license rdf:resource="http://creativecommons.org/licenses/publicdomain/"/><dc:publisher><cc:Agent rdf:about="http://openclipart.org/"><dc:title>Openclipart</dc:title></cc:Agent></dc:publisher></cc:Work><cc:License rdf:about="http://creativecommons.org/licenses/publicdomain/"><cc:permits rdf:resource="http://creativecommons.org/ns#Reproduction"/><cc:permits rdf:resource="http://creativecommons.org/ns#Distribution"/><cc:permits rdf:resource="http://creativecommons.org/ns#DerivativeWorks"/></cc:License></rdf:RDF></metadata></svg>
