<?xml version="1.0" encoding="UTF-8" standalone="no"?>
<!-- Created with Inkscape (http://www.inkscape.org/) -->
<svg xmlns:inkscape="http://www.inkscape.org/namespaces/inkscape" xmlns:rdf="http://www.w3.org/1999/02/22-rdf-syntax-ns#" xmlns="http://www.w3.org/2000/svg" xmlns:xlink="http://www.w3.org/1999/xlink" xmlns:ns1="http://sozi.baierouge.fr" xmlns:cc="http://creativecommons.org/ns#" xmlns:sodipodi="http://sodipodi.sourceforge.net/DTD/sodipodi-0.dtd" xmlns:dc="http://purl.org/dc/elements/1.1/" id="svg2" xml:space="preserve" viewBox="0 0 328.05 320.36" version="1.1" inkscape:version="0.91 r13725">
  <defs id="defs6">
    <linearGradient id="linearGradient24" y2="166.89" gradientUnits="userSpaceOnUse" x2="19.802" gradientTransform="matrix(.00888 .79992 .79992 -.00888 -.00019129 256.28)" y1="166.89" x1="-282.42">
      <stop id="stop26" style="stop-color:#b5d6bf" offset="0"/>
      <stop id="stop28" style="stop-color:#bbdccc" offset=".98820"/>
      <stop id="stop30" style="stop-color:#bbdccc" offset="1"/>
    </linearGradient>
    <clipPath id="clipPath38">
      <path id="path40" d="m51 1.2866h152v207h-152v-207z" inkscape:connector-curvature="0"/>
    </clipPath>
    <mask id="mask42">
      <g id="g44">
        <g id="g46" clip-path="url(#clipPath38)">
          <path id="path48" style="fill:#000000;fill-opacity:.78910" d="m51 1.2866h152v207h-152v-207z" inkscape:connector-curvature="0"/>
        </g>
      </g>
    </mask>
    <clipPath id="clipPath54">
      <path id="path56" d="m51 1.2866h152v207h-152v-207z" inkscape:connector-curvature="0"/>
    </clipPath>
    <clipPath id="clipPath58">
      <path id="path60" d="m51 2h152v207h-152v-207z" inkscape:connector-curvature="0"/>
    </clipPath>
    <linearGradient id="linearGradient66" y2="583.69" gradientUnits="userSpaceOnUse" x2="16095" gradientTransform="matrix(.07352 .79664 -.80488 -.01576 -580.38 -12738)" y1="583.69" x1="15981">
      <stop id="stop68" style="stop-color:#b5d6ba" offset="0"/>
      <stop id="stop70" style="stop-color:#deece0" offset="1"/>
    </linearGradient>
    <linearGradient id="linearGradient104" y2="191.38" gradientUnits="userSpaceOnUse" x2="-9.3474" gradientTransform="matrix(.07944 .79608 .80496 .00984 -.00039189 256.28)" y1="191.38" x1="-262.17">
      <stop id="stop106" style="stop-color:#b5d6ba" offset="0"/>
      <stop id="stop108" style="stop-color:#cee3d1" offset="1"/>
    </linearGradient>
  </defs>
  <g id="g10" transform="matrix(1.25 0 0 -1.25 0 320.36)">
    <g id="g12">
      <g id="g14">
        <g id="g16">
          <g id="g22">
            <path id="path32" style="fill-rule:evenodd;fill:url(#linearGradient24)" d="m180.6 110.16c0.21 6.375 0.945 12.91 2.199 19.601l1.801 8.121-0.364-3.043c-0.238-2.636-0.343-5.425-0.316-8.359 0.105-9.438 1.547-18.731 4.316-27.879 2.774-9.148 6.27-17.812 10.485-26 2.105-4.105 3.929-7.293 5.476-9.559-1.863 6.161-3.586 13.372-5.16 21.641-3.117 16.504-3.891 30-2.316 40.477 1.57 10.457 4.504 20.23 8.8 29.32 1.332 2.828 2.731 5.426 4.2 7.801 0.718 1.176 1.304 2.066 1.757 2.679l-1.359-4.757c-1.012-4-1.879-8.121-2.598-12.364-2.269-13.519-2.457-25.519-0.562-36 1.894-10.48 4.16-19.84 6.801-28.078 1.332-4.105 2.48-7.172 3.441-9.199-0.293 3.812-0.242 8.211 0.16 13.199 0.797 9.973 2.907 17.852 6.317 23.641 3.414 5.758 7.48 11.012 12.199 15.758 2.375 2.375 4.402 4.175 6.082 5.402-0.641-0.723-1.438-1.75-2.399-3.082-1.921-2.664-3.667-5.574-5.242-8.719-5.011-10.082-7.347-20.668-7-31.762 0.242-8.21 1.375-16.453 3.403-24.718 1.011-4.16 2-7.481 2.957-9.961 0.375 2.215 1 4.828 1.882 7.84 1.786 6 4.012 10.988 6.68 14.961 2.692 3.972 5.399 7.425 8.121 10.359 1.36 1.469 2.449 2.535 3.278 3.203-0.426-0.617-0.934-1.48-1.52-2.601-1.226-2.188-2.32-4.465-3.281-6.84-3.039-7.625-4.238-14.762-3.598-21.403 0.934-9.652 3.746-20.773 8.438-33.359 0.91-2.371 2.668-6.785 5.281-13.238 1.816-4.508 2.977-7.68 3.48-9.52-39.04-0.402-78.92-0.867-119.64-1.402-81.437-1.012-126.34-1.785-134.68-2.317-2.319 1.571-2.905 5.371-1.757 11.399l2.399 8.601c4.961 23.946 4.988 43.414 0.082 58.399-1.547 4.691-3.481 8.652-5.801 11.879l-3.039 3.441c10.426-5.973 17.824-13.293 22.199-21.961 2.188-4.32 3.332-8.039 3.438-11.16 3.629 20.32 3.468 39.121-0.477 56.402-1.254 5.414-2.801 10.348-4.641 14.801l-2.402 5.039c8.856-7.812 15.359-21.508 19.52-41.082 2.082-9.812 3.281-18.824 3.601-27.039 4.696 12.238 6.52 24.774 5.481 37.602-0.321 4-0.907 7.785-1.762 11.359l-1.199 4.16c5.734-9.922 9.547-22.043 11.441-36.359 13.785 40.906 23.531 81.062 29.238 120.48 1.442 10.028 2.668 17.43 3.68 22.204 1.602 7.492 3.496 13.359 5.68 17.597 5.387 10.348 13.906 13.067 25.562 8.16 11.785-4.984 21.785-18.066 30-39.238 6.426-16.508 11.227-36.215 14.399-59.121 2.32-16.773 5.414-32.828 9.281-48.16 2.961-11.68 5.879-21.149 8.758-28.399 1.84-4.695 3.91-8.8 6.203-12.32 1.117-1.762 2.066-3.055 2.84-3.883-1.789 5.336-3.563 11.321-5.321 17.961-3.496 13.227-5.132 23.028-4.921 29.403v-0.004z" inkscape:connector-curvature="0"/>
          </g>
        </g>
      </g>
      <g id="g34">
        <g id="g50" mask="url(#mask42)">
          <g id="g72">
            <g id="g74" clip-path="url(#clipPath54)">
              <g id="g76" transform="translate(0 -.71344)">
                <g id="g80">
                  <g id="g82" clip-path="url(#clipPath58)">
                    <g id="g84">
                      <g id="g86">
                        <g id="g88">
                          <g id="g90">
                            <path id="path92" style="fill-rule:evenodd;fill:url(#linearGradient66)" d="m137.12 186.56c2.027-5.95 3.957-13.895 5.801-23.844 1.066-5.731 2.598-14.613 4.598-26.637 1.894-10.562 3.855-19.176 5.878-25.84 4.508-14.855 9.883-29.546 16.122-44.082 5.359-12.507 9.679-21.199 12.96-26.078 2.348-3.496 6.321-10.508 11.918-21.043 2.829-5.254 5.403-10.16 7.723-14.719l-150.84-1.527c0.774 3.094 2.078 7.414 3.918 12.961 3.68 11.094 8.149 22.746 13.403 34.957 6.371 14.828 12.293 33.176 17.757 55.043 6.028 24.293 9.508 45.492 10.442 63.598 0.347 6.535 1.492 12.761 3.437 18.679 1.895 5.789 4.309 10.496 7.242 14.121 3.04 3.813 6.239 5.946 9.598 6.403 3.656 0.504 7.176-1.043 10.563-4.641 3.734-3.976 6.894-9.762 9.48-17.359z" inkscape:connector-curvature="0"/>
                          </g>
                        </g>
                      </g>
                    </g>
                  </g>
                </g>
              </g>
            </g>
          </g>
        </g>
      </g>
      <g id="g94">
        <g id="g96">
          <g id="g102">
            <path id="path110" style="fill-rule:evenodd;fill:url(#linearGradient104)" d="m137.76 142.52c1.597-7.121 3.929-18.242 7-33.363 2.773-13.09 5.183-22.813 7.238-29.157 3.734-11.546 11.066-28.269 22-50.16 4.961-9.894 9.188-18.64 12.68-26.242-63.41-0.614-102.16-1.239-116.24-1.88 1.493 3.707 3.321 8.547 5.481 14.52 4.293 12 8.09 23.718 11.398 35.16 5.227 18.187 8.895 31.305 11 39.359 3.625 13.946 6.52 27.067 8.68 39.36 0.719 4 1.281 9.558 1.68 16.679 0.48 8.535 0.851 13.949 1.121 16.239 0.64 5.546 1.691 9.695 3.16 12.441 1.785 3.336 4.371 5.105 7.758 5.32 3.203 0.215 6.308-3.441 9.32-10.961 2.375-5.918 4.949-15.023 7.723-27.316z" inkscape:connector-curvature="0"/>
          </g>
        </g>
      </g>
    </g>
  </g>
<metadata><rdf:RDF><cc:Work><dc:format>image/svg+xml</dc:format><dc:type rdf:resource="http://purl.org/dc/dcmitype/StillImage"/><cc:license rdf:resource="http://creativecommons.org/licenses/publicdomain/"/><dc:publisher><cc:Agent rdf:about="http://openclipart.org/"><dc:title>Openclipart</dc:title></cc:Agent></dc:publisher></cc:Work><cc:License rdf:about="http://creativecommons.org/licenses/publicdomain/"><cc:permits rdf:resource="http://creativecommons.org/ns#Reproduction"/><cc:permits rdf:resource="http://creativecommons.org/ns#Distribution"/><cc:permits rdf:resource="http://creativecommons.org/ns#DerivativeWorks"/></cc:License></rdf:RDF></metadata></svg>
