<svg viewBox="0 0 200 200" xmlns="http://www.w3.org/2000/svg">
  <path fill="#32CD32" d="M33.4,-62.1C39.6,-54.2,38.6,-37.9,42.9,-26.2C47.2,-14.4,56.8,-7.2,60.4,2.1C64,11.3,61.5,22.7,55.9,32.3C50.4,41.9,41.8,49.7,32,59.7C22.1,69.8,11.1,82,-1,83.6C-13,85.3,-25.9,76.3,-35.7,66.3C-45.5,56.2,-52.1,45.1,-53.5,33.9C-54.8,22.6,-50.8,11.3,-47.6,1.9C-44.3,-7.5,-41.8,-15.1,-37.3,-20.9C-32.8,-26.6,-26.4,-30.6,-19.9,-38.4C-13.3,-46.2,-6.7,-57.7,3.4,-63.7C13.6,-69.7,27.1,-70.1,33.4,-62.1Z" transform="translate(100 100)" />
</svg>